<svg xmlns="http://www.w3.org/2000/svg" viewBox="0 0 35 35" id="order">
  <path d="M27.44,32.75H7.57a5.32,5.32,0,0,1-5.32-5.32V7.56A5.32,5.32,0,0,1,7.57,2.25H27.44a5.31,5.31,0,0,1,5.31,5.31V27.43A5.32,5.32,0,0,1,27.44,32.75ZM7.57,4.75A2.81,2.81,0,0,0,4.75,7.56V27.43a2.82,2.82,0,0,0,2.82,2.82H27.44a2.81,2.81,0,0,0,2.81-2.82V7.56a2.81,2.81,0,0,0-2.81-2.81Z"></path>
  <path d="M13.52 18.75a2.42 2.42 0 0 1-1-.22 2.49 2.49 0 0 1-1.46-2.29V3.5a1.25 1.25 0 0 1 2.5 0V16.24l2.35-2.08a2.41 2.41 0 0 1 3.21 0l2.41 2.09L21.45 3.5a1.25 1.25 0 0 1 2.5 0V16.24a2.49 2.49 0 0 1-1.46 2.29 2.41 2.41 0 0 1-2.61-.39L17.5 16.08l-2.38 2.07A2.41 2.41 0 0 1 13.52 18.75zm3.94-2.7zm.09 0zM19 26.57h-9a1.25 1.25 0 1 1 0-2.5h9a1.25 1.25 0 0 1 0 2.5z"></path>
</svg>
